<svg width="188" height="188" viewBox="0 0 188 188" fill="none" xmlns="http://www.w3.org/2000/svg">
<circle cx="94" cy="94" r="94" fill="#2F49A8"/>
<path d="M113.26 51.2866L87.2585 142.284C86.2632 145.737 82.6677 147.727 79.2145 146.752C75.7612 145.757 73.7705 142.162 74.7455 138.709L100.747 47.7159C101.742 44.2641 105.337 42.2655 108.791 43.2518C112.244 44.2379 114.235 47.8357 113.26 51.2866ZM134.345 67.6597L157.096 90.4085C159.635 92.9474 159.635 97.0504 157.096 99.5893L134.345 122.338C131.806 124.877 127.702 124.877 125.163 122.338C122.624 119.799 122.624 115.696 125.163 113.157L143.303 94.9989L125.163 76.8405C122.624 74.3015 122.624 70.1986 125.163 67.6597C127.702 65.1208 131.806 65.1208 134.345 67.6597ZM62.8419 76.8405L44.692 94.9989L62.8419 113.157C65.3811 115.696 65.3811 119.799 62.8419 122.338C60.3028 124.877 56.1995 124.877 53.6603 122.338L30.9038 99.5893C28.3654 97.0504 28.3654 92.9474 30.9038 90.4085L53.6603 67.6597C56.1995 65.1208 60.3028 65.1208 62.8419 67.6597C65.3811 70.1986 65.3811 74.3015 62.8419 76.8405Z" fill="white"/>
</svg>
