<svg width="153" height="153" viewBox="0 0 153 153" fill="none" xmlns="http://www.w3.org/2000/svg">
<path d="M119.531 57.375H9.5625C4.2583 57.375 0 61.6483 0 66.9375V124.313C0 140.15 12.8496 153 28.6875 153H86.0625C101.9 153 114.75 140.15 114.75 124.313H119.531C137.984 124.313 153 109.296 153 90.8438C153 72.3911 137.999 57.375 119.531 57.375ZM119.531 105.188H114.75V76.5H119.531C127.45 76.5 133.875 82.9248 133.875 90.8438C133.875 98.7627 127.45 105.188 119.531 105.188ZM32.2436 30.092C35.949 32.0045 38.25 36.2778 38.25 40.6407C38.25 44.6001 41.4624 47.7797 45.4219 47.7797C49.3813 47.7797 52.5938 44.2565 52.5938 40.551C52.5938 31.1857 47.5645 22.4301 39.4722 17.7056C35.7697 15.5481 33.4688 11.5438 33.4688 7.25557C33.4688 3.2961 30.2563 0.0418604 26.2969 0.0418604C22.3374 0.0418604 19.125 3.2961 19.125 7.25557C19.125 16.6238 24.1543 25.3765 32.2436 30.092ZM65.7123 30.092C69.4178 32.0045 71.7188 36.2778 71.7188 40.6407C71.7188 44.6001 74.9312 47.7707 78.8906 47.7707C82.8501 47.7707 86.0625 44.2565 86.0625 40.551C86.0625 31.1857 81.0332 22.4301 72.941 17.7056C69.2385 15.5481 66.9375 11.5438 66.9375 7.25557C66.9375 3.2961 63.7251 0.0299072 59.7656 0.0299072C55.8062 0.0299072 52.5938 3.2961 52.5938 7.25557C52.5938 16.6238 57.6141 25.3765 65.7123 30.092Z" fill="black"/>
</svg>
