<svg width="140" height="140" viewBox="0 0 140 140" fill="none" xmlns="http://www.w3.org/2000/svg">
<path d="M135.344 30.3438L109.125 4.125C106.969 1.975 102.219 0 98.7812 0H20C8.95312 0 0 8.95312 0 20V120C0 131.047 8.95312 140 20 140H120C131.047 140 140 131.047 140 120V41.2188C140 37.7812 138.031 33.0313 135.344 30.3438ZM70 120C58.9562 120 50 111.044 50 100C50 88.9563 58.9562 80 70 80C81.0437 80 90 88.9563 90 100C90 111.044 81.0312 120 70 120ZM100 55C100 57.75 97.75 60 95 60H25C22.2375 60 20 57.75 20 55V25C20 22.25 22.2375 20 25 20H95C97.75 20 100 22.25 100 25V55Z" fill="black"/>
</svg>
