<svg width="149" height="149" viewBox="0 0 149 149" fill="none" xmlns="http://www.w3.org/2000/svg">
<path d="M46.5625 102.438H102.438V46.5625H46.5625V102.438ZM130.375 51.2188H144.344C146.905 51.2188 149 49.1234 149 46.5625C149 44.0016 146.916 41.9062 144.344 41.9062H130.375V37.25C130.375 26.9626 122.037 18.625 111.75 18.625H107.094V4.65625C107.094 2.08484 104.998 0 102.438 0C99.8661 0 97.7812 2.08484 97.7812 4.65625V18.625H79.1562V4.65625C79.1562 2.08484 77.0609 0 74.5 0C71.9391 0 69.8438 2.08484 69.8438 4.65625V18.625H51.2188V4.65625C51.2188 2.08484 49.1234 0 46.5625 0C44.0016 0 41.9062 2.08484 41.9062 4.65625V18.625H37.25C26.9626 18.625 18.625 26.9626 18.625 37.25V41.9062H4.65625C2.08484 41.9062 0 44.0016 0 46.5625C0 49.1234 2.08484 51.2188 4.65625 51.2188H18.625V69.8438H4.65625C2.08484 69.8438 0 71.9391 0 74.5C0 77.0609 2.08484 79.1562 4.65625 79.1562H18.625V97.7812H4.65625C2.08484 97.7812 0 99.8766 0 102.438C0 104.998 2.08484 107.094 4.65625 107.094H18.625V111.75C18.625 122.037 26.9626 130.375 37.25 130.375H41.9062V144.344C41.9062 146.905 44.0016 149 46.5625 149C49.1345 149 51.2188 146.915 51.2188 144.344V130.375H69.8438V144.344C69.8438 146.915 71.9286 149 74.5 149C77.072 149 79.1562 146.915 79.1562 144.344V130.375H97.7812V144.344C97.7812 146.915 99.8661 149 102.438 149C105.009 149 107.094 146.915 107.094 144.344V130.375H111.75C122.037 130.375 130.375 122.037 130.375 111.75V107.094H144.344C146.916 107.094 149 105.009 149 102.438C149 99.8661 146.916 97.7812 144.344 97.7812H130.375V79.1562H144.344C146.905 79.1562 149 77.0609 149 74.5C149 71.9391 146.916 69.8438 144.344 69.8438H130.375V51.2188ZM111.75 107.094C111.75 109.665 109.666 111.75 107.094 111.75H41.9062C39.3453 111.75 37.25 109.655 37.25 107.094V41.9062C37.25 39.3453 39.3453 37.25 41.9062 37.25H107.094C109.655 37.25 111.75 39.3453 111.75 41.9062V107.094Z" fill="black"/>
</svg>
