<svg width="59" height="59" viewBox="0 0 59 59" fill="none" xmlns="http://www.w3.org/2000/svg">
<path d="M40.5625 11.0627C40.5625 12.7105 40.2053 14.2778 39.5484 15.6952L45.6328 26.2047C42.9018 29.1202 39.3986 31.2866 35.4461 32.3813L29.5 22.1253H29.3963L21.6525 35.6656C24.1301 36.4492 26.7689 36.8755 29.5 36.8755C37.6471 36.8755 44.9184 33.1073 49.6545 27.092C50.9221 25.6055 53.2498 25.2482 54.84 26.6195C56.4303 27.8987 56.6838 30.2149 55.4047 31.8052C49.3318 39.3877 39.8826 44.2507 29.5 44.2507C25.4207 44.2507 21.5027 43.5131 17.8959 42.1649L11.3679 53.435C10.8263 54.3684 10.0219 55.1289 9.05512 55.6129L2.66883 58.805C2.09727 59.0931 1.41854 59.0585 0.874398 58.7243C0.330838 58.3901 0 57.7909 0 57.1571V50.773C0 49.805 0.256742 48.8486 0.744414 47.9958L7.66193 36.0574C6.18348 34.7552 4.82141 33.3378 3.59301 31.8052C2.31967 30.2149 2.57434 27.8987 4.16342 26.6195C5.7525 25.2482 8.07332 25.6055 9.34781 27.092C10.0012 28.0139 10.7018 28.786 11.4474 29.512L19.4516 15.6952C18.7947 14.2778 18.4375 12.7105 18.4375 11.0627C18.4375 4.95285 23.2889 0 29.5 0C35.6074 0 40.5625 4.95285 40.5625 11.0627ZM29.5 14.7502C31.5396 14.7502 33.1875 13.1023 33.1875 11.0627C33.1875 9.02644 31.5396 7.37511 29.5 7.37511C27.4604 7.37511 25.8125 9.02644 25.8125 11.0627C25.8125 13.1023 27.4604 14.7502 29.5 14.7502ZM42.8787 45.3915C46.7275 43.9165 50.1846 41.8537 53.2152 39.2955L58.251 47.9958C58.7465 48.8486 59 49.805 59 50.773V57.1571C59 57.7909 58.6658 58.3901 58.1242 58.7243C57.5826 59.0585 56.9027 59.0931 56.3266 58.805L49.9426 55.6129C48.9746 55.1289 48.1795 54.3684 47.6264 53.435L42.8787 45.3915Z" fill="black"/>
</svg>
