<svg width="183" height="183" viewBox="0 0 183 183" fill="none" xmlns="http://www.w3.org/2000/svg">
<circle cx="91.5" cy="91.5" r="91.5" fill="#A82F2F"/>
<path d="M115.438 49.9378C115.438 53.2057 114.729 56.3135 113.427 59.1243L125.492 79.9652C120.076 85.7468 113.129 90.0429 105.291 92.2139L93.5 71.8757H93.2943L77.9381 98.7266C82.8512 100.281 88.0842 101.126 93.5 101.126C109.656 101.126 124.075 93.6535 133.467 81.7248C135.981 78.7769 140.597 78.0685 143.751 80.7879C146.904 83.3245 147.407 87.9177 144.87 91.0713C132.828 106.108 114.089 115.751 93.5 115.751C85.4105 115.751 77.641 114.289 70.4885 111.615L57.5431 133.964C56.469 135.815 54.874 137.324 52.9568 138.283L40.2924 144.613C39.159 145.185 37.813 145.116 36.734 144.453C35.6561 143.791 35 142.602 35 141.345V128.685C35 126.766 35.5091 124.869 36.4762 123.178L50.194 99.5036C47.2621 96.9213 44.5611 94.1106 42.1251 91.0713C39.6 87.9177 40.105 83.3245 43.2563 80.7879C46.4075 78.0685 51.0098 78.7769 53.5372 81.7248C54.8329 83.553 56.2222 85.0841 57.7007 86.5237L73.5734 59.1243C72.2709 56.3135 71.5625 53.2057 71.5625 49.9378C71.5625 37.8217 81.183 28 93.5 28C105.611 28 115.438 37.8217 115.438 49.9378ZM93.5 57.2504C97.5447 57.2504 100.812 53.9826 100.812 49.9378C100.812 45.8999 97.5447 42.6252 93.5 42.6252C89.4553 42.6252 86.1875 45.8999 86.1875 49.9378C86.1875 53.9826 89.4553 57.2504 93.5 57.2504ZM120.031 118.014C127.663 115.089 134.519 110.998 140.529 105.925L150.515 123.178C151.497 124.869 152 126.766 152 128.685V141.345C152 142.602 151.337 143.791 150.263 144.453C149.189 145.116 147.841 145.185 146.698 144.613L134.039 138.283C132.119 137.324 130.542 135.815 129.446 133.964L120.031 118.014Z" fill="white"/>
</svg>
