<svg width="61" height="61" viewBox="0 0 61 61" fill="none" xmlns="http://www.w3.org/2000/svg">
<path d="M49.0145 20.9092C49.7293 22.0887 49.7412 23.5541 49.0621 24.7574C48.3949 25.9488 47.1201 26.5803 45.75 26.5803H22.875C21.5049 26.5803 20.2301 25.9488 19.5629 24.7574C18.8838 23.5541 18.8957 22.0887 19.6105 20.9092L31.048 1.85145C31.7271 0.702572 32.9781 0 34.3125 0C35.6469 0 36.8979 0.702691 37.577 1.85145L49.0145 20.9092ZM34.3125 37.1719C34.3125 34.5389 36.4451 32.4062 39.0781 32.4062H56.2344C58.8674 32.4062 61 34.5389 61 37.1719V54.3281C61 56.9611 58.8674 59.0938 56.2344 59.0938H39.0781C36.4451 59.0938 34.3125 56.9611 34.3125 54.3281V37.1719ZM0 45.75C0 37.3268 6.82795 30.5 15.25 30.5C23.6732 30.5 30.5 37.3268 30.5 45.75C30.5 54.1732 23.6732 61 15.25 61C6.82795 61 0 54.1732 0 45.75Z" fill="black"/>
</svg>
