<svg width="105" height="49" viewBox="0 0 105 49" fill="none" xmlns="http://www.w3.org/2000/svg">
<path d="M89.3755 32.4798L97.2424 24.5962L89.3755 16.7126C88.2749 15.6103 88.2749 13.829 89.3755 12.7267C90.476 11.6244 92.2546 11.6244 93.3552 12.7267L103.219 22.6033C104.319 23.7056 104.319 25.4869 103.219 26.5892L93.3552 36.4657C92.2546 37.568 90.476 37.568 89.3755 36.4657C88.2749 35.3635 88.2749 33.5821 89.3755 32.4798Z" fill="black"/>
<path d="M14.6686 16.7126L6.80162 24.5962L14.6686 32.4798C15.7692 33.5821 15.7692 35.3635 14.6686 36.4657C13.568 37.568 11.7895 37.568 10.6889 36.4657L0.825175 26.5892C-0.275058 25.4869 -0.275058 23.7056 0.825175 22.6033L10.6889 12.7267C11.7895 11.6244 13.568 11.6244 14.6686 12.7267C15.7692 13.829 15.7692 15.6103 14.6686 16.7126Z" fill="black"/>
<path d="M30.803 14.3291L35.5619 16.405L37.5464 21.1717C37.6438 21.3681 37.901 21.5269 38.1195 21.5269C38.1202 21.5269 38.1187 21.5269 38.1195 21.5269C38.3372 21.5254 38.5925 21.3673 38.6895 21.1717L40.676 16.4021L45.4331 14.4118C45.6271 14.3149 45.7859 14.058 45.787 13.8402C45.7032 13.618 45.6265 13.3585 45.4348 13.2624L40.6987 11.2826L40.6603 11.2442L38.6892 6.50625C38.5924 6.3102 38.3374 6.15259 38.1197 6.15066C38.119 6.15066 38.1205 6.15066 38.1197 6.15066C37.9013 6.15066 37.6436 6.30914 37.5463 6.50548L35.5619 11.273L30.803 13.2624C30.6084 13.3681 30.45 13.618 30.45 13.839C30.45 14.06 30.6084 14.3099 30.803 14.3291ZM79.45 35.3663C79.4496 35.1479 79.2911 34.8906 79.0965 34.793L74.3442 32.8065L72.3529 28.033C72.3363 27.8414 72.0871 27.678 71.8666 27.678C71.6479 27.678 71.3922 27.8368 71.2948 28.0331L69.3102 32.8027L64.5512 34.7931C64.3568 34.8907 64.198 35.147 64.1977 35.3655C64.1981 35.5828 64.357 35.8416 64.5512 35.9388L69.3035 37.9253L71.2948 42.6988C71.3968 42.8913 71.6461 43.0546 71.8666 43.0546C72.0849 43.0546 72.3406 42.8955 72.438 42.6992L74.4215 37.9295L79.1816 35.9392C79.3733 35.8372 79.45 35.5874 79.45 35.3663ZM50.305 6.15066L51.4958 9.01264C51.6376 9.13085 51.791 9.226 51.839 9.226C51.8869 9.226 52.1232 9.13064 52.1817 9.01274L53.3729 6.15066L56.228 4.95705C56.3448 4.89849 56.4403 4.7438 56.4403 4.61319C56.4403 4.48182 56.3448 4.32786 56.228 4.26933L53.3729 3.07533L52.2704 0.213255C52.1266 0.0953545 52.0595 0 51.839 0C51.6185 0 51.6376 0.0953545 51.5801 0.213255L50.305 3.07533L47.5343 4.26894C47.333 4.32757 47.3234 4.48134 47.3234 4.613C47.3234 4.7436 47.4186 4.89833 47.5353 4.95686L50.305 6.15066ZM68.7124 18.3655C69.5632 18.3655 70.16 17.6806 70.16 16.8278V14.1369L78.9678 4.36313C79.519 3.75085 79.4951 2.91195 78.9199 2.2373L77.2162 0.458801C76.629 -0.129837 75.7062 -0.153863 75.0955 0.398736L48.3397 24.5162H44.2555C43.4047 24.5162 42.8079 25.2009 42.8079 25.9673V29.5117L31.5429 39.6987C30.2487 40.876 30.1873 42.9028 31.4332 44.1522L35.4023 48.1318C36.5623 49.2947 38.6744 49.3197 39.8478 48.0229L66.6152 18.2787H68.7124V18.3655Z" fill="black"/>
</svg>
