<svg width="183" height="183" viewBox="0 0 183 183" fill="none" xmlns="http://www.w3.org/2000/svg">
<circle cx="91.5" cy="91.5" r="91.5" fill="#642FA8"/>
<path d="M40.778 71.2901L51.267 75.8231L55.6411 86.2322C55.8558 86.6609 56.4225 87.0078 56.9041 87.0078C57.384 87.0045 57.9467 86.6592 58.1605 86.2322L62.5388 75.8168L73.024 71.4706C73.4515 71.2591 73.8016 70.6981 73.8039 70.2226C73.6193 69.7372 73.4502 69.1705 73.0276 68.9607L62.5889 64.6376L62.5044 64.5536L58.1599 54.2075C57.9465 53.7794 57.3844 53.4352 56.9047 53.431C56.4231 53.431 55.8554 53.7771 55.6409 54.2058L51.267 64.6166L40.778 68.9607C40.3491 69.1915 40 69.7372 40 70.2198C40 70.7025 40.3491 71.2482 40.778 71.2901ZM148 117.228C147.999 116.751 147.65 116.19 147.221 115.976L136.746 111.639L132.357 101.215C132.321 100.796 131.771 100.44 131.285 100.44C130.803 100.44 130.24 100.786 130.025 101.215L125.651 111.63L115.162 115.977C114.733 116.19 114.383 116.75 114.383 117.227C114.383 117.701 114.734 118.266 115.162 118.479L125.636 122.816L130.025 133.24C130.25 133.661 130.799 134.017 131.285 134.017C131.767 134.017 132.33 133.67 132.545 133.241L136.917 122.826L147.408 118.479C147.831 118.257 148 117.711 148 117.228ZM83.7621 53.431L86.3865 59.6807C86.6993 59.9388 87.0374 60.1466 87.143 60.1466C87.2487 60.1466 87.7696 59.9383 87.8985 59.6809L90.524 53.431L96.8167 50.8246C97.0743 50.6967 97.2848 50.3589 97.2848 50.0737C97.2848 49.7868 97.0743 49.4506 96.8167 49.3228L90.524 46.7155L88.0939 40.4657C87.777 40.2082 87.629 40 87.143 40C86.657 40 86.6993 40.2082 86.5725 40.4657L83.7621 46.7155L77.6553 49.322C77.2115 49.45 77.1904 49.7858 77.1904 50.0733C77.1904 50.3585 77.4002 50.6964 77.6574 50.8242L83.7621 53.431ZM124.333 80.1043C126.209 80.1043 127.524 78.6086 127.524 76.7465V70.8704L146.937 49.5276C148.152 48.1906 148.099 46.3588 146.831 44.8855L143.076 41.0019C141.782 39.7165 139.748 39.664 138.402 40.8707L79.4302 93.5353H70.4285C68.5531 93.5353 67.2377 95.0305 67.2377 96.7042V104.444L42.4089 126.689C39.5563 129.26 39.421 133.686 42.167 136.414L50.9152 145.104C53.472 147.644 58.1271 147.698 60.7136 144.866L119.711 79.9147H124.333V80.1043Z" fill="white"/>
</svg>
